<?xml version="1.0" encoding="UTF-8" standalone="no"?>
<!DOCTYPE svg PUBLIC "-//W3C//DTD SVG 1.1//EN" "http://www.w3.org/Graphics/SVG/1.1/DTD/svg11.dtd">
<svg width="100%" height="100%" viewBox="0 0 2126 2126" version="1.1" xmlns="http://www.w3.org/2000/svg" xmlns:xlink="http://www.w3.org/1999/xlink" xml:space="preserve" xmlns:serif="http://www.serif.com/" style="fill-rule:evenodd;clip-rule:evenodd;stroke-linejoin:round;stroke-miterlimit:2;">
    <g transform="matrix(1.55951,0,0,1.55951,-1534.53,-545.371)">
        <path d="M1669.48,1302.86C1666.95,1302.93 1664.62,1302.85 1662.64,1302.42C1653.55,1300.5 1644.78,1297.26 1635.96,1294.33C1625.05,1290.71 1609.1,1285.31 1597.16,1280.69C1586.06,1276.39 1575.08,1271.72 1564.33,1266.6C1552.32,1260.88 1538.07,1253.38 1525.13,1246.41C1511.69,1239.18 1497.34,1231.25 1483.7,1223.22C1467.25,1213.54 1443.51,1200.46 1426.41,1188.31C1410.36,1176.89 1394.79,1164.51 1381.15,1150.3C1367.24,1135.81 1354.08,1118.82 1342.96,1101.38C1331.22,1082.98 1319.7,1060.88 1310.73,1039.91C1301.82,1019.1 1293.6,995.989 1289.1,975.53C1284.91,956.445 1283.38,936.506 1283.75,917.153C1284.12,897.8 1288.2,876.628 1291.33,859.412C1294.12,844.029 1298.34,828.556 1302.48,813.855C1306.53,799.484 1312.76,785.744 1316.18,771.21C1319.66,756.418 1323.01,740.656 1323.36,725.108C1323.73,708.437 1321.23,687.811 1318.4,671.186C1315.76,655.617 1312.14,640.064 1306.38,625.357C1299.16,606.899 1285.8,581.15 1275.06,560.433C1264.62,540.311 1253.84,520.333 1241.92,501.056C1224.96,473.64 1175.45,410.232 1173.32,395.94C1171.18,381.649 1211.56,406.361 1229.09,415.308C1257.3,429.706 1309.43,463.289 1342.55,482.324C1370.72,498.511 1398.1,516.422 1427.83,529.517C1466.64,546.612 1538.03,570.345 1575.44,584.893C1601.31,594.95 1627.07,605.332 1652.33,616.81C1680.45,629.586 1718.63,647.696 1744.17,661.548C1765.4,673.056 1786.09,685.708 1805.6,699.92C1826.33,715.015 1852.01,735.701 1868.55,752.114C1882.46,765.922 1894.48,783.212 1904.82,798.398C1914.52,812.644 1924.73,827.016 1930.59,843.226C1937.34,861.928 1943.63,889.283 1945.34,910.606C1946.95,930.785 1944.55,951.273 1940.79,971.165C1935.67,998.278 1924.22,1039.48 1914.62,1073.28C1902.09,1117.41 1878.38,1190.41 1865.62,1235.95C1855.37,1272.53 1844.94,1314.95 1838.04,1346.53C1832.33,1372.63 1829.04,1399.19 1824.19,1425.46C1818,1459.04 1807.78,1507.49 1800.85,1548.03C1794.01,1588.13 1789.45,1651.62 1782.67,1668.7C1779.1,1677.67 1764.96,1658.87 1760.14,1650.51C1752.22,1636.81 1741.41,1608.54 1735.18,1586.5C1727.79,1560.32 1720.21,1524.84 1715.78,1493.47C1710.81,1458.32 1707.72,1406.41 1705.38,1375.54C1703.68,1353.14 1708.86,1320.43 1701.74,1308.25C1701.11,1307.17 1700.34,1306.26 1699.46,1305.5C1699.26,1293.81 1698.86,1281.53 1698.98,1272.22C1699.31,1247.36 1699.44,1219.36 1698.47,1192.96C1697.4,1163.86 1696.71,1129.16 1692.58,1097.59C1687.98,1062.51 1679.48,1019.06 1670.91,982.468C1662.66,947.218 1654.41,910.809 1641.18,878.055C1639.01,872.675 1636.62,867.212 1634.07,861.726C1644.3,858.73 1654.91,856.37 1663.47,853.801C1673.58,850.768 1686.03,847.042 1693.64,844.179C1699.02,842.156 1708.5,839.677 1709.14,836.629C1709.78,833.58 1701.49,829.337 1697.48,825.889C1692.77,821.828 1685.12,816.34 1680.84,812.262C1677.44,809.019 1674.39,804.313 1671.83,801.423C1669.82,799.153 1668.46,794.462 1665.46,794.923C1660.73,795.651 1650.81,802.179 1643.47,805.788C1636.67,809.134 1625.13,814.733 1612.72,820.777C1605.38,807.929 1598.01,795.985 1591.55,785.94C1578.98,766.404 1563.75,748.568 1547.36,732.226C1526.38,711.307 1465.65,660.423 1465.65,660.423C1465.65,660.423 1477.48,677.095 1482.55,685.97C1489.48,698.11 1499.74,717.126 1507.24,733.258C1519.24,759.039 1544.12,812.056 1558.73,847.754C1554.16,850.399 1549.74,853.325 1545.61,856.599C1531.71,867.601 1481.02,910.672 1481.02,910.672C1481.02,910.672 1503.96,909.089 1515.05,906.294C1529.98,902.535 1554.92,894.545 1572.74,887.939C1577.59,905.052 1581.45,922.501 1585.66,939.783C1592.73,968.835 1599.89,1003.1 1606.28,1034.91C1614.7,1076.83 1629.05,1154.87 1636.17,1191.29C1640.23,1212.06 1643.7,1235.39 1648.97,1253.46C1653.64,1269.44 1659.95,1285.03 1667.8,1299.67C1668.33,1300.66 1668.89,1301.73 1669.48,1302.86ZM1885.15,1568.32C1881.88,1560.52 1877.51,1544.04 1876.45,1531.46C1875.01,1514.19 1873.23,1486.7 1876.48,1464.68C1882.13,1426.33 1883.8,1350.2 1910.38,1301.37C1938.41,1249.91 2001.14,1200.26 2044.61,1155.91C2085.42,1114.28 2149.91,1050.32 2171.23,1035.27C2179.5,1029.43 2173.52,1055.53 2172.53,1065.61C2168.55,1105.83 2158.81,1220.64 2147.37,1276.63C2138.55,1319.83 2120.28,1371.62 2103.9,1401.56C2091.51,1424.19 2069.48,1440.41 2049.1,1456.24C2021.65,1477.56 1964.67,1509.17 1939.17,1529.51C1922.2,1543.04 1905.06,1571.81 1896.06,1578.28C1892.06,1581.15 1887.05,1572.86 1885.15,1568.32ZM1676.35,1476.13C1677.16,1476.05 1675.2,1474.93 1674.83,1474.2C1669.9,1464.63 1657.42,1436.47 1646.76,1418.69C1632.98,1395.74 1614.27,1359.64 1592.18,1336.45C1570.09,1313.26 1543.61,1292.62 1514.21,1279.55C1477.43,1263.2 1415.96,1248.62 1371.53,1238.35C1330.76,1228.93 1283.09,1227.45 1247.66,1217.95C1216.77,1209.67 1170.64,1181.61 1158.95,1181.36C1147.26,1181.11 1169.83,1205.69 1177.53,1216.45C1191.17,1235.52 1223.08,1271.4 1240.75,1295.73C1256.27,1317.11 1271.2,1339.08 1283.55,1362.44C1298.82,1391.32 1315.62,1443.75 1332.36,1469.04C1344.98,1488.1 1362.42,1506.63 1384.01,1514.15C1409.25,1522.94 1450.78,1526.63 1483.79,1521.81C1523.26,1516.03 1588.73,1487.1 1620.83,1479.49C1638.87,1475.21 1667.35,1477.01 1676.35,1476.13Z" style="fill:rgb(58,206,0);"/>
    </g>
    <g id="Layer1">
    </g>
</svg>
